<svg width="26" height="23" viewBox="0 0 26 23" fill="none" xmlns="http://www.w3.org/2000/svg">
<path d="M16.5189 22.4908C15.9493 18.9197 15.4235 15.5458 14.8648 12.0296L13.9666 12.7635C11.9664 14.5276 9.66615 15.9189 7.17499 16.8713C6.78328 17.0431 6.35508 17.115 5.92875 17.0806C5.50242 17.0462 5.09129 16.9065 4.73221 16.6741C3.18766 15.6883 1.58836 14.7681 0 13.826C0.237976 13.4782 0.571239 13.2063 0.95983 13.0431C1.34842 12.8799 1.77584 12.8323 2.19084 12.9059C3.44239 13.0392 4.70049 13.1014 5.95909 13.0921C6.35425 13.0859 6.73747 12.9556 7.05451 12.7197C11.4362 8.99524 15.8179 5.2562 20.1995 1.50257C21.3381 0.500285 22.8129 -0.0356299 24.3293 0.00184023C25.6876 0.00184023 26.2572 0.900085 25.6766 2.19268C25.3559 2.84072 24.9133 3.4209 24.3731 3.90153C23.0915 5.07363 21.755 6.18001 20.4186 7.28638C20.2452 7.41393 20.1023 7.57832 20 7.76773C19.8977 7.95714 19.8386 8.16685 19.8271 8.3818C19.5423 12.0843 19.1918 15.7868 18.9069 19.4894C18.9045 19.8643 18.8103 20.233 18.6328 20.5633C18.4552 20.8936 18.1996 21.1755 17.8882 21.3844C17.4129 21.7292 16.9558 22.0985 16.5189 22.4908V22.4908Z" fill="#FFBA08"/>
</svg>
